<mxfile host="app.diagrams.net" modified="2024-03-15T19:51:43.170Z" agent="Mozilla/5.0 (Windows NT 10.0; Win64; x64) AppleWebKit/537.36 (KHTML, like Gecko) Chrome/122.0.0.0 Safari/537.36 Edg/122.0.0.0" version="23.1.3" etag="ui9wdJQF4I-VBOsSRaUs" type="github">
  <diagram name="PÃ¡gina-1" id="bq-ELUNfRq4u4A0Mhgsw">
    <mxGraphModel>
      <root>
        <mxCell id="0" />
        <mxCell id="1" parent="0" />
      </root>
    </mxGraphModel>
  </diagram>
</mxfile>
